<svg width="12" height="12" viewBox="0 0 12 12" fill="none" xmlns="http://www.w3.org/2000/svg">
    <path d="M6 0C2.6863 0 0 2.6863 0 6C0 9.3137 2.6863 12 6 12C9.31369 12 12 9.3137 12 6C12 2.6863 9.31369 0 6 0ZM6 1.30371C8.59369 1.30371 10.6956 3.40696 10.6956 6C10.6956 8.59305 8.59369 10.6956 6 10.6956C3.4063 10.6956 1.30444 8.59305 1.30444 6C1.30445 3.40696 3.4063 1.30371 6 1.30371ZM8.29907 3.15088L4.82153 6.62915L3.6936 5.50122L2.58691 6.60718L3.71484 7.73511L4.82885 8.84912L5.93482 7.74243L9.41308 4.26489L8.29907 3.15088Z" fill="#0397D9" />
</svg>
