<svg width="12" height="7" viewBox="0 0 12 7" fill="none" xmlns="http://www.w3.org/2000/svg">
    <path d="M0 6.5C0 6.36739 0.0526785 6.24021 0.146447 6.14645C0.240215 6.05268 0.367392 6 0.5 6H3.5C3.63261 6 3.75979 6.05268 3.85355 6.14645C3.94732 6.24021 4 6.36739 4 6.5C4 6.63261 3.94732 6.75979 3.85355 6.85355C3.75979 6.94732 3.63261 7 3.5 7H0.5C0.367392 7 0.240215 6.94732 0.146447 6.85355C0.0526785 6.75979 0 6.63261 0 6.5ZM0 3.5C0 3.36739 0.0526785 3.24021 0.146447 3.14645C0.240215 3.05268 0.367392 3 0.5 3H7.5C7.63261 3 7.75979 3.05268 7.85355 3.14645C7.94732 3.24021 8 3.36739 8 3.5C8 3.63261 7.94732 3.75979 7.85355 3.85355C7.75979 3.94732 7.63261 4 7.5 4H0.5C0.367392 4 0.240215 3.94732 0.146447 3.85355C0.0526785 3.75979 0 3.63261 0 3.5ZM0 0.5C0 0.367392 0.0526785 0.240215 0.146447 0.146447C0.240215 0.0526785 0.367392 0 0.5 0H11.5C11.6326 0 11.7598 0.0526785 11.8536 0.146447C11.9473 0.240215 12 0.367392 12 0.5C12 0.632608 11.9473 0.759785 11.8536 0.853553C11.7598 0.947321 11.6326 1 11.5 1H0.5C0.367392 1 0.240215 0.947321 0.146447 0.853553C0.0526785 0.759785 0 0.632608 0 0.5Z" fill="#F7F9FB" />
</svg>
