<svg width="53" height="52" viewBox="0 0 53 52" fill="none" xmlns="http://www.w3.org/2000/svg">
    <path d="M50.9279 34.8109C53.2986 37.7005 52.1868 42.2155 48.837 43.729C50.6025 47.5221 47.7178 52.047 43.517 51.9997L23.0539 51.9958C20.3594 51.888 20.3618 48.0399 23.0543 47.9337H23.0547L43.5174 47.9377C44.497 47.9377 45.2942 47.1404 45.2942 46.1605C45.2942 45.1822 44.5035 44.3233 43.586 44.2818H40.115C37.4202 44.1746 37.4223 40.3261 40.115 40.2197H46.3605C48.7187 40.1218 48.7169 36.7625 46.3605 36.6654H40.115C37.4202 36.5582 37.4223 32.7097 40.115 32.6033H46.6651C49.0234 32.5054 49.0215 29.1461 46.6651 29.049H40.115C37.4202 28.9418 37.4223 25.0933 40.115 24.987H45.1418C47.5001 24.8891 47.4982 21.5297 45.1418 21.4326L31.6856 21.4287C30.1931 21.442 29.1901 19.8177 29.8696 18.4894C32.6946 12.737 36.2672 5.51642 32.707 4.26053C32.0916 4.00929 31.537 3.99833 31.0589 4.22844C30.5669 4.46516 30.1393 4.9654 29.8498 5.64143C28.3821 10.402 26.6126 14.0279 22.4598 18.3219C19.4759 21.458 15.2629 23.2566 10.901 23.2566H8.02466C6.12076 23.2566 4.5719 24.8055 4.5719 26.7094V35.9506C4.46466 38.6454 0.616148 38.6433 0.509823 35.9506V26.7094C0.509823 22.5657 3.88094 19.1945 8.02466 19.1945H10.901C14.1558 19.1945 17.2963 17.8559 19.5172 15.5219C21.3521 13.5935 22.8005 11.6928 23.8222 9.8731C24.6097 8.47036 26.0416 4.22083 26.0619 4.17137C27.3777 0.808278 30.8819 -0.921454 34.2429 0.500068C40.992 3.61233 37.8449 11.0798 34.9422 17.3676L45.1426 17.3707C49.6092 17.327 52.4727 22.3637 50.1759 26.1637C52.9124 28.1494 53.3006 32.3647 50.9279 34.8109ZM15.2242 49.964C15.2483 49.9397 15.2719 49.9147 15.2947 49.8891L28.02 35.6807C28.7683 34.8451 28.6977 33.561 27.8621 32.8126C27.0264 32.0643 25.7425 32.1351 24.9941 32.9706L12.3078 47.1356C11.2614 48.2033 9.40962 48.1898 8.38049 47.1088L3.98777 42.6494C3.20054 41.8501 1.91459 41.8406 1.11548 42.6277C0.316367 43.4149 0.30672 44.7008 1.09385 45.4999L5.49114 49.9639C6.79009 51.2741 8.5184 51.9956 10.3576 51.9956C12.1968 51.9956 13.9252 51.2743 15.2242 49.964Z" fill="#0397D9" />
</svg>
