<svg width="53" height="44" viewBox="0 0 53 44" fill="none" xmlns="http://www.w3.org/2000/svg">
    <path d="M14.6821 15.7935C17.4856 15.7935 19.7665 13.5126 19.7665 10.7091C19.7665 7.90553 17.4856 5.62463 14.6821 5.62463C11.8785 5.62463 9.59766 7.90553 9.59766 10.7091C9.59766 13.5126 11.8785 15.7935 14.6821 15.7935ZM14.6821 8.67926C15.8013 8.67926 16.7119 9.58985 16.7119 10.7091C16.7119 11.8283 15.8013 12.7389 14.6821 12.7389C13.5629 12.7389 12.6523 11.8283 12.6523 10.7091C12.6523 9.58985 13.5629 8.67926 14.6821 8.67926Z" fill="#0397D9" />
    <path d="M47.3443 30.6145H45.2719C45.3267 30.3203 45.4503 29.9658 45.7025 29.5748C46.479 28.3714 46.6451 27.3087 46.7915 26.3711C46.8839 25.7802 46.9711 25.2221 47.2084 24.5782C47.4185 24.0078 47.8228 23.5445 48.2369 23.1915L49.6695 26.7229L52.5 25.5745L47.378 12.9091L46.1336 13.1609C45.9916 13.1896 42.6305 13.9097 40.5288 17.8015C38.9949 20.6421 35.5412 22.8477 31.3396 23.7315L30.5021 20.659L29.0087 21.0961C26.1206 21.9413 24.6492 22.6877 21.6939 24.5012C20.6841 25.1209 19.3369 25.5014 17.6675 25.6422C18.4103 24.6447 20.4375 21.9658 20.4375 21.9658C22.515 19.2477 25.3604 15.5251 25.3604 10.7091C25.3604 4.82126 20.5704 0.031189 14.6825 0.031189C8.79475 0.031189 4.00458 4.82126 4.00458 10.7091C4.00458 15.5251 6.84986 19.2477 8.92752 21.9658C8.92752 21.9658 10.8165 24.4605 11.5245 25.4101C9.13463 25.3697 7.27293 26.0129 5.86139 27.3606C4.21484 28.9326 3.54455 31.5338 4.07402 33.9135L0.5 36.2903L4.72557 43.9322H6.77533L8.35906 42.15C9.95744 40.3513 12.2541 39.3197 14.6603 39.3197C16.69 39.3197 18.6553 40.0555 20.1944 41.3915C21.9462 42.912 23.6475 43.7643 25.2512 43.9247C25.5548 43.955 25.8432 43.9689 26.1182 43.9689C27.6059 43.9689 28.7004 43.5656 29.6841 43.203C30.793 42.7944 31.669 42.4716 33.1439 42.6629C33.7671 42.7437 34.3343 42.7823 34.854 42.7823C37.7687 42.7822 39.1658 41.5666 40.2666 39.7604C40.6468 39.1366 41.1776 38.7762 41.6838 38.6184C42.8047 38.2689 44.2255 39.7543 44.2255 39.7543L47.1114 38.3358C47.6249 39.749 47.8858 41.2271 47.8858 42.7358H50.9404C50.9404 40.6974 50.5565 38.704 49.7997 36.8113L47.3443 30.6145ZM14.6824 3.08582C18.8859 3.08582 22.3057 6.50558 22.3057 10.7091C22.3057 14.4914 19.9241 17.6072 18.0105 20.1108C18.0105 20.1108 15.5031 23.4315 14.6823 24.5379C13.8616 23.4315 11.3542 20.1108 11.3542 20.1108C9.4406 17.6072 7.05901 14.4914 7.05901 10.7091C7.05921 6.50558 10.479 3.08582 14.6824 3.08582ZM44.4835 36.2237C43.1029 35.4656 41.9075 35.4618 41.097 35.6205C39.717 35.8906 38.4958 36.7963 37.6584 38.1706C37.0531 39.1639 36.53 40.0217 33.5368 39.6336C31.3161 39.3458 29.8882 39.8722 28.6279 40.3367C27.6076 40.7128 26.8017 41.0099 25.5551 40.8851C24.6057 40.7902 23.4445 40.1675 22.1967 39.0845C20.1021 37.2663 17.4256 36.2649 14.6603 36.2649C11.3924 36.2649 8.27271 37.6616 6.09598 40.098L4.53507 37.2751L7.77552 35.12L7.28006 33.9533C6.54919 32.2322 7.09037 30.4102 7.97071 29.5697C8.98027 28.6058 10.4058 28.2886 12.5927 28.5409C17.3267 29.087 20.8264 28.6172 23.2916 27.1045C25.4865 25.7576 26.6967 25.0932 28.3831 24.5L29.1113 27.1719L30.4421 26.9866C36.2636 26.1762 41.039 23.285 43.2165 19.2527C43.9549 17.8854 44.8796 17.102 45.5994 16.6645L47.049 20.2634C46.1038 20.8945 44.921 21.9503 44.3419 23.5218C43.9998 24.4505 43.8795 25.2202 43.7734 25.8992C43.6454 26.7183 43.5608 27.2595 43.1357 27.9182C41.4937 30.4629 42.436 32.5757 42.5488 32.8083L42.9665 33.6688H45.2641L45.9804 35.4874L44.4835 36.2237Z" fill="#0397D9" />
</svg>
