<svg width="41" height="41" viewBox="0 0 41 41" fill="none" xmlns="http://www.w3.org/2000/svg">
    <path d="M21.4608 4.8917C21.4878 4.8917 21.5141 4.89154 21.5409 4.89154C25.444 4.89154 29.1014 6.40056 31.846 9.14521C34.6134 11.9125 36.127 15.6011 36.1083 19.5313C36.1041 20.4158 36.8177 21.1363 37.7023 21.1405C37.7049 21.1405 37.7074 21.1405 37.71 21.1405C38.5908 21.1405 39.3071 20.4284 39.3114 19.5465C39.3342 14.7548 37.4873 10.2566 34.111 6.88016C30.761 3.53003 26.3002 1.68835 21.5414 1.68835C21.5122 1.68835 21.4827 1.68843 21.4534 1.68851C20.5688 1.69276 19.8552 2.41324 19.8594 3.29772C19.8636 4.17963 20.5799 4.8917 21.4608 4.8917Z" fill="#0397D9" />
    <path d="M40.9967 33.0371C40.9395 31.4511 40.2789 29.9711 39.1365 28.8696C36.8998 26.7128 35.0259 25.4677 33.239 24.9514C30.7765 24.2397 28.4962 24.8869 26.461 26.8746C26.4579 26.8775 26.4548 26.8806 26.4517 26.8836L24.2843 29.035C22.9381 28.2787 20.3211 26.6144 17.4588 23.752L17.248 23.5414C14.4046 20.698 12.7297 18.0661 11.9677 16.7144L14.1169 14.549C14.12 14.5459 14.1229 14.5429 14.126 14.5397C16.1136 12.5046 16.7607 10.2241 16.0492 7.7618C15.5328 5.97499 14.2878 4.10096 12.1309 1.86426C11.0294 0.72192 9.54941 0.0612621 7.96359 0.00408523C6.37809 -0.0530116 4.85393 0.499058 3.67284 1.55931L3.62687 1.60063C3.60549 1.61977 3.58467 1.63955 3.56441 1.65981C1.21327 4.01079 -0.0191542 7.30223 0.000225071 11.1782C0.0330577 17.7623 3.65178 25.2921 9.68018 31.3204C9.68522 31.3255 9.69019 31.3304 9.69523 31.3353C10.8285 32.467 12.1152 33.5869 13.52 34.664C14.2219 35.2022 15.2272 35.0695 15.7655 34.3676C16.3037 33.6656 16.171 32.6603 15.4691 32.122C14.1689 31.1252 12.9833 30.0934 11.9452 29.0553C11.9403 29.0503 11.9353 29.0454 11.9303 29.0405C6.49405 23.5981 3.23208 16.916 3.20333 11.1621C3.18844 8.17702 4.08637 5.6855 5.8004 3.95378L5.81265 3.94272C6.97685 2.89784 8.7394 2.96143 9.82528 4.08751C13.9719 8.38763 13.6716 10.4177 11.8394 12.2966L8.87049 15.2878C8.40491 15.7569 8.27526 16.4638 8.54417 17.0676C8.61952 17.2369 10.4428 21.266 14.9837 25.8069L15.1945 26.0174C19.7348 30.5578 23.7639 32.381 23.9332 32.4565C24.537 32.7254 25.2439 32.5957 25.713 32.1301L28.7037 29.1617C30.5828 27.3293 32.613 27.0286 36.9133 31.1753C38.0394 32.2612 38.1029 34.0238 37.0582 35.1877L37.0469 35.2003C35.3292 36.9003 32.8643 37.7975 29.9117 37.7975C29.8874 37.7975 29.863 37.7975 29.8386 37.7974C27.4786 37.7856 24.7457 37.1386 21.9357 35.9266C21.1235 35.5761 20.181 35.9506 19.8307 36.7628C19.4803 37.575 19.8548 38.5174 20.6669 38.8678C23.9151 40.2689 26.9956 40.9864 29.8226 41.0006C29.8526 41.0006 29.8825 41.0007 29.9125 41.0007C33.7494 41.0006 37.0082 39.7692 39.3409 37.4364C39.3612 37.416 39.3809 37.3953 39.4001 37.3739L39.4416 37.3277C40.5016 36.1468 41.0539 34.623 40.9967 33.0371Z" fill="#0397D9" />
    <path d="M29.5866 11.4148C27.8686 9.69676 26.2198 9.24087 25.4273 9.02169C24.5745 8.78586 23.6925 9.28587 23.4568 10.1385C23.221 10.991 23.721 11.8732 24.5736 12.109C25.2216 12.2882 26.2008 12.559 27.3216 13.6798C28.4005 14.7587 28.6871 15.7327 28.8768 16.3772L28.9 16.4556C29.1061 17.1521 29.7438 17.6031 30.435 17.6031C30.5856 17.6032 30.7387 17.5817 30.8903 17.5368C31.7385 17.2858 32.2225 16.3946 31.9714 15.5465L31.9497 15.473C31.7027 14.6336 31.2428 13.0711 29.5866 11.4148Z" fill="#0397D9" />
</svg>
