<svg width="13" height="17" viewBox="0 0 13 17" fill="none" xmlns="http://www.w3.org/2000/svg">
    <path d="M3.98792 1.06598C4.4255 0.934045 4.89507 0.955963 5.31846 1.12808C5.74185 1.30021 6.09351 1.61215 6.31492 2.01198L6.38992 2.16098L7.05092 3.63198C7.25182 4.07846 7.31704 4.57416 7.23845 5.05741C7.15987 5.54067 6.94095 5.99016 6.60892 6.34998L6.47692 6.48198L5.43292 7.45498C5.24492 7.63298 5.38592 8.32198 6.06692 9.49998C6.67792 10.56 7.17692 11.055 7.42092 11.082H7.46392L7.51692 11.072L9.56692 10.445C9.84243 10.3605 10.1364 10.3571 10.4138 10.4353C10.6912 10.5136 10.9401 10.67 11.1309 10.886L11.2229 11.001L12.5789 12.881C12.845 13.2494 12.9777 13.6974 12.9552 14.1512C12.9326 14.6051 12.7562 15.0378 12.4549 15.378L12.3329 15.504L11.7899 16.018C11.3032 16.4789 10.6944 16.7904 10.0358 16.9153C9.37725 17.0403 8.69664 16.9736 8.07492 16.723C6.13992 15.943 4.38192 14.161 2.78492 11.395C1.18492 8.62198 0.519917 6.20498 0.816917 4.13498C0.906878 3.50913 1.16469 2.91934 1.56297 2.42827C1.96125 1.9372 2.48512 1.56319 3.07892 1.34598L3.27192 1.28198L3.98792 1.06598Z" fill="#0397D9" />
</svg>
