<svg width="43" height="52" viewBox="0 0 43 52" fill="none" xmlns="http://www.w3.org/2000/svg">
    <path d="M15.4678 24.8304C14.873 24.2354 13.9084 24.2354 13.3134 24.8304C12.7184 25.4253 12.7184 26.3899 13.3134 26.9848L18.053 31.7245C18.3505 32.0219 18.7404 32.1707 19.1302 32.1707C19.52 32.1707 19.91 32.022 20.2074 31.7245L29.6865 22.2453C30.2814 21.6504 30.2814 20.6858 29.6865 20.0909C29.0916 19.4959 28.127 19.4959 27.532 20.0909L19.1301 28.4927L15.4678 24.8304Z" fill="#0397D9" />
    <path d="M40.7877 7.10937C36.3967 7.10937 32.3961 4.69666 30.3475 0.812703C30.084 0.312812 29.5652 0 29.0001 0H13.9999C13.4348 0 12.916 0.312812 12.6524 0.812703C10.6039 4.69666 6.60332 7.10937 2.20312 7.10937C1.36178 7.10937 0.679688 7.79147 0.679688 8.63281V24.1466C0.679688 30.3833 2.62837 36.3388 6.31498 41.3691C10.0018 46.3995 15.0939 50.0511 21.0412 51.9292C21.1905 51.9763 21.3452 51.9999 21.5 51.9999C21.6548 51.9999 21.8095 51.9763 21.9588 51.9292C27.9061 50.0511 32.9982 46.3995 36.685 41.3691C40.3716 36.3388 42.3203 30.3833 42.3203 24.1466V8.63281C42.3203 7.79147 41.6291 7.10937 40.7877 7.10937ZM39.2734 24.1466C39.2734 35.4214 32.1513 45.298 21.5 48.8744C10.8487 45.298 3.72656 35.4214 3.72656 24.1466V10.0798C8.3373 9.61177 12.4607 7.02426 14.886 3.04687H28.1141C30.538 7.02223 34.659 9.60913 39.2734 10.0791V24.1466Z" fill="#0397D9" />
    <path d="M26.9435 6.65316C26.6542 6.29911 26.221 6.09375 25.7638 6.09375H17.2361C16.7789 6.09375 16.3458 6.29911 16.0566 6.65316C13.9024 9.28881 11.0546 11.2439 7.82105 12.3068C7.19594 12.5123 6.77344 13.096 6.77344 13.7541V24.1467C6.77344 33.4764 12.3237 41.8193 20.9137 45.4011C21.1014 45.4793 21.3007 45.5184 21.5 45.5184C21.6993 45.5184 21.8987 45.4793 22.0863 45.4011C30.6763 41.8193 36.2266 33.4764 36.2266 24.1467V13.7551C36.2266 13.0971 35.8042 12.5134 35.179 12.3079C31.9454 11.2445 29.0976 9.28921 26.9435 6.65316ZM33.1797 24.1467C33.1797 32.0283 28.6164 39.0978 21.5 42.3335C14.3836 39.0979 9.82031 32.0284 9.82031 24.1467V14.8259C12.9468 13.6108 15.7269 11.6659 17.9421 9.14062H25.0578C27.2731 11.6662 30.0529 13.6114 33.1797 14.8267V24.1467Z" fill="#0397D9" />
</svg>
