<svg width="45" height="45" viewBox="0 0 45 45" fill="none" xmlns="http://www.w3.org/2000/svg">
    <path d="M40.7919 0C40.7431 0 40.6947 0.00205994 40.6459 0.00617981C40.3584 0.0298691 33.9291 0.619698 31.5132 5.30537L22.7885 4.41925C20.6742 4.20467 18.6021 4.94316 17.104 6.44279L2.05144 21.4371C-0.684672 24.1764 -0.683642 28.6321 2.0535 31.3701L13.5988 42.9184C14.9855 44.3055 16.8048 45 18.6179 45C20.4059 44.9997 22.1881 44.3243 23.5432 42.9713C24.2299 42.2853 24.2306 41.173 23.5443 40.4867C22.8583 39.8 21.7449 39.7997 21.0582 40.4853C19.7003 41.8414 17.4695 41.8184 16.0862 40.4345L4.54056 28.8861C3.17199 27.5173 3.17165 25.2895 4.53644 23.9231L19.5894 8.92845C20.3399 8.17726 21.3763 7.80785 22.433 7.91496L35.8095 9.27383L35.9837 10.9822C33.5471 11.89 31.2284 12.0348 31.1755 12.0379C30.2071 12.0901 29.4638 12.9165 29.5146 13.8847C29.5641 14.8223 30.3401 15.5494 31.2686 15.5494C31.2999 15.5494 31.3311 15.5487 31.3624 15.547C31.475 15.5412 33.7247 15.4124 36.3496 14.573L37.1678 22.6044C37.2753 23.6584 36.9078 24.6925 36.1589 25.4426L27.5827 33.8884C26.8912 34.5692 26.8829 35.6819 27.5641 36.373C28.2456 37.0641 29.3586 37.0723 30.0501 36.3912L38.6315 27.9406C38.6343 27.9379 38.637 27.9351 38.6401 27.9321C40.1427 26.4317 40.8812 24.3601 40.6658 22.2483L39.7325 13.0912C40.9149 12.3994 41.9118 11.5844 42.7087 10.6554C44.2305 8.88004 45.0017 6.73359 45 4.27608V4.20605C45 1.8869 43.1124 0 40.7919 0V0ZM41.4841 4.27711C41.4855 6.24092 40.7741 7.83428 39.3251 9.09428L39.1619 7.49268C39.0774 6.66321 38.421 6.00712 37.5907 5.92266L35.5516 5.71564C37.3509 3.99902 40.324 3.57914 40.8551 3.51665C41.2072 3.54893 41.4841 3.8459 41.4841 4.20605V4.27711ZM27.2367 25.7417C26.5504 26.428 25.4374 26.428 24.7507 25.7417C24.064 25.0554 24.064 23.943 24.7507 23.257C24.9383 23.0696 24.9723 22.8522 24.9678 22.7029C24.9609 22.4629 24.8562 22.2298 24.6731 22.0472L23.5961 20.9705C23.3169 20.6914 22.9575 20.5355 22.5845 20.5314C22.3227 20.529 21.9493 20.5966 21.6096 20.9365L21.332 21.2139C20.759 21.7862 20.7381 22.7321 21.2856 23.2797L22.4247 24.4178C23.3581 25.3506 23.8792 26.5814 23.8929 27.884C23.9063 29.2048 23.3969 30.4493 22.4574 31.3879L22.3279 31.5174C21.3777 32.4673 20.1538 32.9408 18.9219 32.9408C17.8756 32.9411 16.824 32.5982 15.9285 31.9167L15.1923 32.6266C14.8512 32.9556 14.4112 33.119 13.9718 33.119C13.5115 33.119 13.0515 32.9394 12.7067 32.582C12.0323 31.8837 12.0526 30.7713 12.7513 30.0977L13.4102 29.4622C12.6689 28.6596 12.2501 27.6378 12.2271 26.5643C12.2024 25.3942 12.6486 24.2897 13.484 23.4548C14.1707 22.7688 15.2837 22.7688 15.9704 23.4548C16.6568 24.1411 16.6568 25.2534 15.9704 25.9398C15.8144 26.0953 15.7378 26.2803 15.7423 26.4894C15.7471 26.7139 15.8474 26.9354 16.0254 27.1129L17.8769 28.9634C18.4568 29.5429 19.3015 29.5724 19.8418 29.0327L19.9713 28.903C20.2369 28.6379 20.3808 28.2891 20.377 27.9204C20.3729 27.5427 20.2173 27.1812 19.9387 26.9028L18.7993 25.7643C16.8715 23.8372 16.8924 20.6814 18.8456 18.7289L19.1235 18.4515C20.05 17.5256 21.2716 17.0175 22.5683 17.0175H22.6226C23.5192 17.0274 24.3825 17.2794 25.1385 17.7419L25.8936 16.9625C26.5693 16.2653 27.6819 16.2474 28.3796 16.9224C29.077 17.5974 29.0948 18.7097 28.4195 19.407L27.674 20.1764C28.1738 20.8888 28.4566 21.7262 28.4823 22.5999C28.517 23.7885 28.0749 24.9043 27.2367 25.7417Z" fill="#0397D9" />
</svg>
